/vscmnt/brussel_pixiu_data/_data_brussel/112/vsc11236/PredSimResults/SUBJ06opt3D/weighted-LRposFixed/trackIG/worker_03.mot
version=1
nRows=7
nColumns=50
inDegrees=yes
endheader
                time	         pelvis_tilt	         pelvis_list	     pelvis_rotation	           pelvis_tx	           pelvis_ty	           pelvis_tz	       hip_flexion_r	     hip_adduction_r	      hip_rotation_r	        knee_angle_r	       ankle_angle_r	         mtp_angle_r	       hip_flexion_l	     hip_adduction_l	      hip_rotation_l	        knee_angle_l	       ankle_angle_l	         mtp_angle_l	    lumbar_extension	      lumbar_bending	     lumbar_rotation	 ercspn_r/activation	 intobl_r/activation	 extobl_r/activation	    abd_r/activation	    add_r/activation	hamstrings_r/activation	bifemsh_r/activation	glut_max_r/activation	iliopsoas_r/activation	rect_fem_r/activation	  vasti_r/activation	gastroc_r/activation	 soleus_r/activation	tib_ant_r/activation	 ercspn_l/activation	 intobl_l/activation	 extobl_l/activation	    abd_l/activation	    add_l/activation	hamstrings_l/activation	bifemsh_l/activation	glut_max_l/activation	iliopsoas_l/activation	rect_fem_l/activation	  vasti_l/activation	gastroc_l/activation	 soleus_l/activation	tib_ant_l/activation	
          0.61485139	         -6.53347865	          0.84377656	         -4.16715319	          0.68863356	          0.92858128	          0.01094779	         -9.31885355	         -0.33237480	         -5.66816292	        -10.64839673	          9.71748755	         32.24384897	         32.63993738	         -1.03962159	         -6.35139228	         -7.32224817	          0.30108246	          0.22689765	         -5.29323867	          0.48931128	          7.98213550	          0.11889331	          0.00999999	          0.00999999	          0.09411169	          0.00999999	          0.00999999	          0.27859389	          0.01682922	          0.65997101	          0.01451904	          0.00999999	          0.25648890	          0.40776337	          0.02540069	          0.19404867	          0.15911360	          0.00999999	          0.00999999	          0.29102464	          0.07054976	          0.12260390	          0.01442105	          0.12735256	          0.01204947	          0.00999999	          0.00999999	          0.00999999	          0.51861948	
          0.62714842	         -6.63977313	          0.78107379	         -4.20180462	          0.70523272	          0.92661674	          0.01009809	         -9.74932301	         -0.43062127	         -6.05194820	        -11.48708553	          8.83115526	         34.14160946	         32.98020874	         -0.90749248	         -6.26324186	         -9.32584205	          0.01381203	          0.22346920	         -4.96920632	          0.14868455	          8.49992979	          0.17084528	          0.00999999	          0.00999999	          0.07810420	          0.01000000	          0.00999999	          0.24824720	          0.01451904	          0.68541920	          0.01204950	          0.00999999	          0.23258581	          0.38762793	          0.02108028	          0.17595909	          0.13204991	          0.00999999	          0.00999999	          0.42262861	          0.07354693	          0.10175016	          0.08042668	          0.10569112	          0.01000000	          0.00999999	          0.01451904	          0.01749473	          0.52458432	
          0.63944544	         -6.71995434	          0.76878649	         -4.22265557	          0.72234393	          0.92489621	          0.00921641	        -10.05885203	         -0.61223877	         -6.42396658	        -12.62623561	          7.80360400	         36.10917746	         33.09798152	         -0.81287031	         -5.98354761	        -11.27576365	         -0.20049326	          0.19404368	         -4.61140659	         -0.25670307	          8.97533384	          0.16337085	          0.00999999	          0.00999999	          0.06481943	          0.01000001	          0.01030429	          0.22976827	          0.01204949	          0.67114576	          0.01000000	          0.00999999	          0.19302520	          0.35979643	          0.01749473	          0.14603014	          0.10958949	          0.00999999	          0.02155735	          0.35074356	          0.07925754	          0.08444344	          0.10356212	          0.08771408	          0.00999999	          0.00999999	          0.01204951	          0.01451904	          0.56290234	
          0.65174247	         -6.77744969	          0.79424339	         -4.21960878	          0.73974669	          0.92349033	          0.00820036	        -10.17120535	         -0.87407892	         -6.79846713	        -14.16746002	          6.60943107	         38.14351095	         33.04237502	         -0.70193485	         -5.84543275	        -12.98011573	         -0.49679368	          0.17987952	         -4.24670099	         -0.69741550	          9.39837479	          0.16677780	          0.00999999	          0.00999999	          0.05379427	          0.01000000	          0.01000000	          0.21002352	          0.00999999	          0.63088977	          0.01000000	          0.00999999	          0.16019348	          0.33162260	          0.01451904	          0.15456449	          0.09094937	          0.00999999	          0.06021643	          0.33466110	          0.08016129	          0.07008042	          0.13129292	          0.07279476	          0.00999999	          0.02512085	          0.01000000	          0.01204949	          0.60283922	
          0.66403950	         -6.81301986	          0.84111393	         -4.19188755	          0.75723701	          0.92247968	          0.00705690	        -10.03395932	         -1.20409044	         -7.18503804	        -16.16841882	          5.19639874	         40.22587919	         32.88461479	         -0.58265200	         -5.86813141	        -14.53824368	         -0.80380608	          0.15281355	         -3.89896347	         -1.15483625	          9.76260329	          0.19829861	          0.00999999	          0.00999999	          0.04464438	          0.01000000	          0.01000000	          0.18836643	          0.00999999	          0.52790352	          0.00999999	          0.00999999	          0.13294611	          0.27708164	          0.01204949	          0.15482159	          0.07547976	          0.00999999	          0.10793031	          0.31012152	          0.07883520	          0.05816042	          0.14993364	          0.06041307	          0.00999999	          0.09125946	          0.00999999	          0.00999999	          0.64908053	
          0.67633653	         -6.82859224	          0.91727010	         -4.14359643	          0.77464367	          0.92199971	          0.00580558	         -9.61489804	         -1.61557711	         -7.58773095	        -18.64228961	          3.51175832	         42.25169009	         32.64196142	         -0.43792150	         -5.98143026	        -16.01175730	         -0.82291627	          0.11761035	         -3.58088070	         -1.63662626	         10.06615648	          0.23036087	          0.00999999	          0.00999999	          0.03705080	          0.01000000	          0.03602165	          0.16474383	          0.00999999	          0.43811222	          0.00999999	          0.00999999	          0.11033326	          0.22995272	          0.00999999	          0.15058895	          0.06264138	          0.00999999	          0.15915901	          0.27720609	          0.07913943	          0.04826789	          0.13976933	          0.05013739	          0.00999999	          0.16509788	          0.00999999	          0.00999999	          0.64268810	
          0.68863356	         -6.82815049	          1.02446461	         -4.08198634	          0.79179194	          0.92219185	          0.00446591	         -8.88969943	         -2.11529609	         -7.99817154	        -21.58477265	          1.54982342	         43.96468925	         32.30504654	         -0.24554885	         -6.08116926	        -17.40343424	         -0.30015092	          0.14257310	         -3.30323705	         -2.14138025	         10.31354752	          0.26197151	          0.00999999	          0.00999999	          0.03074882	          0.09830720	          0.11845300	          0.16565233	          0.00999999	          0.36359355	          0.00999999	          0.00999999	          0.09156663	          0.19083998	          0.00999999	          0.13990840	          0.05198669	          0.00999999	          0.20261400	          0.24410360	          0.07525181	          0.04005799	          0.12486874	          0.04160950	          0.00999999	          0.26159347	          0.00999999	          0.00999999	          0.56623519	
